<svg xmlns="http://www.w3.org/2000/svg" viewBox="0 0 105 38"><path d="M2.2824,12.0676h5.029a12.7559,12.7559,0,0,0,1.71-.1267l4.1992,5.9323h1.4584l-4.4-6.2112a5.6593,5.6593,0,0,0,3.0552-2.0155A5.7482,5.7482,0,0,0,14.4023,6.11a5.4335,5.4335,0,0,0-1.8859-4.3987A7.8477,7.8477,0,0,0,7.3114.1268H1V17.8732H2.2824Zm0-10.7746h5.029a6.49,6.49,0,0,1,4.3,1.2549A4.4076,4.4076,0,0,1,13.0948,6.11a4.4075,4.4075,0,0,1-1.4836,3.5619,6.49,6.49,0,0,1-4.3,1.255H2.2824Z"></path><path d="M31.25,16.8338a8.5532,8.5532,0,0,0,3.2814-3.22A9.0072,9.0072,0,0,0,35.7253,9a9.0072,9.0072,0,0,0-1.1944-4.6141,8.5532,8.5532,0,0,0-3.2814-3.22A9.4219,9.4219,0,0,0,26.5725,0a9.3409,9.3409,0,0,0-4.6769,1.1789,8.6452,8.6452,0,0,0-3.2815,3.2324A8.9592,8.9592,0,0,0,17.42,9a8.9592,8.9592,0,0,0,1.1944,4.5887,8.6452,8.6452,0,0,0,3.2815,3.2324A9.3409,9.3409,0,0,0,26.5725,18,9.4219,9.4219,0,0,0,31.25,16.8338ZM19.7331,12.993A7.8466,7.8466,0,0,1,18.7021,9a7.8466,7.8466,0,0,1,1.031-3.993,7.4128,7.4128,0,0,1,2.8288-2.8014,8.413,8.413,0,0,1,8.0087,0A7.4393,7.4393,0,0,1,33.3868,5.007,7.8456,7.8456,0,0,1,34.4178,9a7.8456,7.8456,0,0,1-1.031,3.993,7.4393,7.4393,0,0,1-2.8162,2.8014,8.413,8.413,0,0,1-8.0087,0A7.4128,7.4128,0,0,1,19.7331,12.993Z"></path><path d="M77.19,12.0676h5.029a12.7582,12.7582,0,0,0,1.71-.1267l4.1992,5.9323h1.4584l-4.4-6.2112a5.6587,5.6587,0,0,0,3.0551-2.0155A5.7482,5.7482,0,0,0,89.31,6.11a5.4338,5.4338,0,0,0-1.8859-4.3987A7.8481,7.8481,0,0,0,82.2186.1268H75.9072V17.8732H77.19Zm0-10.7746h5.029a6.49,6.49,0,0,1,4.3,1.2549A4.4079,4.4079,0,0,1,88.002,6.11a4.4078,4.4078,0,0,1-1.4836,3.5619,6.49,6.49,0,0,1-4.3,1.255H77.19Z"></path><polygon points="91.044 0.127 91.044 1.293 97.381 1.293 97.381 17.873 98.663 17.873 98.663 1.293 105 1.293 105 0.127 91.044 0.127"></polygon><polygon points="71.23 16.707 60.367 16.707 60.367 9.431 69.747 9.431 69.747 8.29 60.367 8.29 60.367 1.293 70.853 1.293 70.853 0.127 59.085 0.127 59.085 17.873 71.23 17.873 71.23 16.707"></polygon><path d="M50.6364,8.7211a4.3753,4.3753,0,0,0,2.15-1.4958,4.1009,4.1009,0,0,0,.792-2.56,3.9257,3.9257,0,0,0-1.5967-3.3591A7.39,7.39,0,0,0,47.5184.1268H40.176V17.8732h7.8453a8.0728,8.0728,0,0,0,4.853-1.2169,4.0709,4.0709,0,0,0,1.6344-3.4732,4.3546,4.3546,0,0,0-.9932-2.9662A4.8663,4.8663,0,0,0,50.6364,8.7211Zm-9.178-7.4789h6.01a6.007,6.007,0,0,1,3.558.9,3.035,3.035,0,0,1,1.2447,2.6239,3.0614,3.0614,0,0,1-1.2447,2.6493,6.0077,6.0077,0,0,1-3.558.9h-6.01ZM51.9062,15.8577a6.9068,6.9068,0,0,1-3.8849.9H41.4584V9.431h6.5629a6.9857,6.9857,0,0,1,3.8849.8873,3.0946,3.0946,0,0,1,1.32,2.7634A3.1265,3.1265,0,0,1,51.9062,15.8577Z"></path><path d="M13.7239,21.1662A9.2935,9.2935,0,0,0,9.0827,20a9.2142,9.2142,0,0,0-4.6412,1.1789,8.6118,8.6118,0,0,0-3.2563,3.2324,9.4756,9.4756,0,0,0,0,9.1774,8.6118,8.6118,0,0,0,3.2563,3.2324A9.2142,9.2142,0,0,0,9.0827,38a9.2935,9.2935,0,0,0,4.6412-1.1662,8.52,8.52,0,0,0,3.2563-3.22,9.5742,9.5742,0,0,0,0-9.2282A8.52,8.52,0,0,0,13.7239,21.1662ZM15.8448,32.993A7.4109,7.4109,0,0,1,13.05,35.7944a7.8434,7.8434,0,0,1-3.9675,1.0141,7.9116,7.9116,0,0,1-3.98-1.0141A7.3844,7.3844,0,0,1,2.2957,32.993a8.3036,8.3036,0,0,1,0-7.986,7.3844,7.3844,0,0,1,2.8071-2.8014,7.9116,7.9116,0,0,1,3.98-1.0141A7.8434,7.8434,0,0,1,13.05,22.2056a7.4109,7.4109,0,0,1,2.7946,2.8014,8.3036,8.3036,0,0,1,0,7.986Z"></path><path d="M74.7451,22.2056A8.149,8.149,0,0,1,78.8,21.1915a8.7448,8.7448,0,0,1,3.0068.4944,6.5893,6.5893,0,0,1,2.4578,1.61l.7985-.862a7.5451,7.5451,0,0,0-2.7573-1.8126A9.7252,9.7252,0,0,0,78.775,20a9.463,9.463,0,0,0-4.7036,1.1662,8.4956,8.4956,0,0,0-3.2688,3.22,9.5742,9.5742,0,0,0,0,9.2282,8.4956,8.4956,0,0,0,3.2688,3.22A9.4127,9.4127,0,0,0,78.75,38a10.2077,10.2077,0,0,0,3.4559-.5831,7.59,7.59,0,0,0,2.7822-1.6986V29.076H83.7654v6.11A7.554,7.554,0,0,1,78.8,36.8085a8,8,0,0,1-4.0423-1.0268,7.5413,7.5413,0,0,1-2.8321-2.8141A7.771,7.771,0,0,1,70.89,29a7.8941,7.8941,0,0,1,1.023-3.993A7.3352,7.3352,0,0,1,74.7451,22.2056Z"></path><path d="M95.6927,20.1268,87.658,37.8732H89.03l2.2208-4.9944h10.1307l2.2457,4.9944H105L96.9653,20.1268ZM91.75,31.7888l4.5663-10.2424,4.5913,10.2424Z"></path><polygon points="55.869 29.431 65.176 29.431 65.176 28.29 55.869 28.29 55.869 21.293 66.274 21.293 66.274 20.127 54.596 20.127 54.596 37.873 66.648 37.873 66.648 36.707 55.869 36.707 55.869 29.431"></polygon><path d="M34.8212,29.6465A5.78,5.78,0,0,0,35.8817,26.11,5.4524,5.4524,0,0,0,34.01,21.7112a7.7474,7.7474,0,0,0-5.1652-1.5844H22.582V37.8732h1.2726V32.0676h4.99a12.5638,12.5638,0,0,0,1.6968-.1267l4.1671,5.9323h1.4472L31.7894,31.662A5.6134,5.6134,0,0,0,34.8212,29.6465Zm-5.9762,1.28h-4.99V21.293h4.99a6.4057,6.4057,0,0,1,4.2669,1.2549,4.4237,4.4237,0,0,1,1.4722,3.562,4.4236,4.4236,0,0,1-1.4722,3.5619A6.4062,6.4062,0,0,1,28.845,30.9268Z"></path><polygon points="37.603 21.293 43.891 21.293 43.891 37.873 45.164 37.873 45.164 21.293 51.452 21.293 51.452 20.127 37.603 20.127 37.603 21.293"></polygon></svg>